# xmcd
#
# Track frame offsets:
#	150
#	15510
#	38552
#
# Disc length: 742 seconds
#
# Revision: 0
# Processed by: cddbd v1.5.1PL0 Copyright (c) Steve Scherf et al.
# Submitted via: dBpowerAMP V4.0
#
DISCID=1402e403
DTITLE=Mary-Chapin Carpenter - Sampler cd
DYEAR=1900
DGENRE=Country
TTITLE0=Passionate Kisses
TTITLE1=I Am A Town
TTITLE2=The Bug
EXTD=
EXTT0=
EXTT1=
EXTT2=
PLAYORDER=
